<?xml version="1.0" standalone="no"?>
<!DOCTYPE svg PUBLIC "-//W3C//DTD SVG 20010904//EN"
 "http://www.w3.org/TR/2001/REC-SVG-20010904/DTD/svg10.dtd">
<svg version="1.0" xmlns="http://www.w3.org/2000/svg"
 width="31.000000pt" height="31.000000pt" viewBox="0 0 31.000000 31.000000"
 preserveAspectRatio="xMidYMid meet">

<g transform="translate(0.000000,31.000000) scale(0.100000,-0.100000)"
fill="#000000" stroke="none">
<path d="M121 265 c-22 -24 -41 -48 -41 -53 0 -14 55 -62 72 -62 8 0 21 7 28
15 15 18 34 9 25 -13 -7 -18 41 -72 65 -72 20 0 40 19 40 40 0 27 -47 72 -69
65 -25 -8 -35 9 -16 25 23 19 18 56 -11 79 -15 12 -32 21 -39 21 -7 0 -31 -20
-54 -45z m81 -2 c18 -16 17 -18 -19 -55 -34 -35 -38 -37 -55 -21 -24 22 -23
32 9 65 31 33 40 34 65 11z m82 -144 c-8 -13 -30 -11 -43 4 -18 23 8 41 31 21
9 -9 15 -21 12 -25z"/>
<path d="M43 110 c-18 -7 -23 -17 -23 -44 0 -19 -5 -38 -10 -41 -30 -19 -1
-25 100 -23 137 4 152 22 22 26 l-93 3 3 27 c3 26 6 27 67 30 50 2 66 0 76
-14 9 -14 14 -14 20 -4 5 9 0 20 -15 32 -24 20 -107 24 -147 8z"/>
</g>
</svg>
